:SAMPLES-PER-SECOND 30
:FULLY-SPECIFIED
:DEGREES
407
root  -67.7747 39.1247 -1.73342 38.9032 81.7242 40.7925
RightUpLeg  10.035 -0.379348 -7.97373
RightLeg  31.8488 6.89168 4.35174
RightFoot  -17.1592 0.627793 14.5351
RightToes  -6.40286e-010 0 -3.6325e-017
Spine  4.97699 3.45475 2.7844
Spine1  7.05532 5.62985 -9.65106
HEad  -16.2521 -5.17447 -0.148389
LeftShoulder1  -0.511672 4.84171 -32.0974
LeftArm  -5.94078 12.5091 -41.699
LeftForeArm  36.1423 -8.83078 -7.52512
LeftHand  -0.103712 8.30298 -2.03547
RightShoulder  -0.794328 -5.71791 29.2433
RightArm  14.4246 12.7896 53.421
RightForeArm  17.6229 4.55466 8.03737
RightHand  -0.141998 4.54663 -1.88657
LeftUpLeg  -17.5449 4.32385 -9.08906
LeftLeg  20.6049 4.17531 2.02535
LeftFoot  -1.01845 -0.550186 6.15082
LeftToes  1.32783e-010 1.73515e-011 1.59258e-011
408
root  -66.8484 39.2717 -1.7847 37.2774 81.1031 39.061
RightUpLeg  4.94189 1.1282 -8.73124
RightLeg  41.8024 6.62217 6.03439
RightFoot  -9.16356 -0.321562 15.0582
RightToes  -6.40286e-010 0 -3.6325e-017
Spine  4.91082 3.33129 1.51216
Spine1  6.61865 5.21735 -9.28545
HEad  -15.4094 -3.99527 -0.757179
LeftShoulder1  -0.493607 4.80366 -31.8295
LeftArm  -4.0587 12.4951 -42.3638
LeftForeArm  33.9908 -10.506 -7.65155
LeftHand  -0.182009 10.2976 -2.60125
RightShoulder  -0.860237 -5.89359 29.3964
RightArm  14.2506 10.5284 54.0934
RightForeArm  22.0109 0.875714 7.96552
RightHand  0.0189475 3.28474 -0.0234566
LeftUpLeg  -15.719 4.74906 -9.26236
LeftLeg  19.9446 4.6302 1.88563
LeftFoot  -2.37924 -0.462703 6.07639
LeftToes  1.32783e-010 1.73515e-011 1.59258e-011
409
root  -65.9263 39.3908 -1.83173 37.1398 80.8334 39.1895
RightUpLeg  0.0539085 2.21757 -9.27003
RightLeg  50.4002 5.86999 7.19164
RightFoot  -1.28487 -1.20913 13.4731
RightToes  -6.40286e-010 0 -3.6325e-017
Spine  4.79989 2.96241 -0.0944995
Spine1  6.93595 4.44358 -8.20787
HEad  -15.5459 -2.51498 -1.30212
LeftShoulder1  -0.522824 4.86261 -32.3321
LeftArm  -1.1648 11.547 -42.4548
LeftForeArm  30.8644 -12.5158 -7.58411
LeftHand  -0.0244806 8.26752 0.557478
RightShoulder  -0.853332 -5.86906 29.4731
RightArm  13.8586 7.13777 53.8018
RightForeArm  24.2773 0.934323 7.84275
RightHand  -0.0933132 2.9635 -1.521
LeftUpLeg  -13.5316 4.19692 -9.36708
LeftLeg  19.3697 5.47856 1.79888
LeftFoot  -3.71503 -0.373951 5.95071
LeftToes  1.32783e-010 1.73515e-011 1.59258e-011
410
root  -65.0897 39.484 -1.84486 34.9373 80.6883 37.1539
RightUpLeg  -4.44192 2.97189 -9.31087
RightLeg  56.4509 4.61249 7.04532
RightFoot  -0.979924 -1.17977 12.8654
RightToes  -6.40286e-010 0 -3.6325e-017
Spine  5.13053 2.73374 -1.42532
Spine1  6.88593 3.79743 -7.28745
HEad  -16.0565 -1.56932 -1.5847
LeftShoulder1  -0.539451 4.90353 -32.3971
LeftArm  2.58949 10.2144 -42.7841
LeftForeArm  27.869 -14.7181 -7.14918
LeftHand  -0.0348861 7.53608 0.39175
RightShoulder  -0.886485 -5.93695 29.8349
RightArm  15.0926 3.36277 52.4992
RightForeArm  25.1186 3.21057 8.25938
RightHand  -0.0758936 2.80557 -1.28732
LeftUpLeg  -11.7189 4.04245 -9.083
LeftLeg  19.0773 6.07205 1.60323
LeftFoot  -5.0047 -0.312508 6.1805
LeftToes  1.32783e-010 1.73515e-011 1.59258e-011
411
root  -64.2212 39.6198 -1.88202 32.0676 80.9639 34.4989
RightUpLeg  -8.62474 3.28994 -9.00297
RightLeg  59.8152 3.70053 6.38999
RightFoot  -1.58735 -0.95474 11.0405
RightToes  -6.40286e-010 0 -3.6325e-017
Spine  5.57367 2.20803 -1.74627
Spine1  6.52743 3.1096 -6.94304
HEad  -16.3631 -0.660314 -1.69921
LeftShoulder1  -0.560421 4.9767 -31.904
LeftArm  6.42854 9.2482 -43.4249
LeftForeArm  24.0832 -17.5714 -6.02348
LeftHand  -0.0146586 6.88325 1.52265
RightShoulder  -0.95096 -6.06879 30.4946
RightArm  17.4597 -0.387067 50.4
RightForeArm  23.8795 6.3974 8.74512
RightHand  0.0119867 3.26243 -0.0783017
LeftUpLeg  -9.44294 3.8355 -8.56261
LeftLeg  18.075 6.40189 1.34073
LeftFoot  -6.07362 -0.248179 6.18543
LeftToes  1.32783e-010 1.73515e-011 1.59258e-011
412
root  -63.3576 39.7231 -1.89681 29.0388 81.2568 31.6195
RightUpLeg  -12.4611 3.74952 -8.50129
RightLeg  60.4676 2.87663 5.01759
RightFoot  -1.86542 -0.862433 10.2207
RightToes  -6.40286e-010 0 -3.6325e-017
Spine  5.80005 1.70683 -2.48896
Spine1  6.39073 2.29215 -5.75334
HEad  -16.7547 0.392372 -1.80121
LeftShoulder1  -0.594863 5.0708 -31.7988
LeftArm  8.60748 8.2631 -43.96
LeftForeArm  20.9465 -20.1253 -4.8311
LeftHand  0.00354754 7.65559 2.16659
RightShoulder  -0.991312 -6.17587 30.5286
RightArm  21.0343 -3.80295 48.6765
RightForeArm  20.2658 10.1575 8.59683
RightHand  -0.0020999 4.13651 -0.296212
LeftUpLeg  -7.25104 3.96321 -8.00937
LeftLeg  17.0638 6.37743 1.01805
LeftFoot  -7.21936 -0.18223 6.27205
LeftToes  1.32783e-010 1.73515e-011 1.59258e-011
413
root  -62.5218 39.7903 -1.931 26.4733 81.6807 29.1556
RightUpLeg  -15.806 3.95049 -7.96017
RightLeg  58.4693 2.38585 3.746
RightFoot  -2.55173 -0.707733 8.96158
RightToes  -6.40286e-010 0 -3.6325e-017
Spine  6.34823 1.19092 -3.4845
Spine1  5.78129 1.30775 -3.80712
HEad  -17.3993 1.79744 -2.32333
LeftShoulder1  -0.685308 5.28086 -32.4161
LeftArm  9.40962 7.03851 -43.7603
LeftForeArm  18.6966 -22.3385 -4.15251
LeftHand  0.0110243 7.84112 2.43727
RightShoulder  -0.91079 -6.01614 29.6667
RightArm  24.1111 -6.76853 47.7051
RightForeArm  17.9191 12.6034 8.0273
RightHand  0.0107944 4.32989 -0.191815
LeftUpLeg  -5.27643 4.22636 -7.5147
LeftLeg  16.3182 5.8989 0.727657
LeftFoot  -8.41872 -0.111771 6.34796
LeftToes  1.32783e-010 1.73515e-011 1.59258e-011
414
root  -61.6722 39.8235 -1.97051 24.5307 82.1356 27.2907
RightUpLeg  -18.3376 4.07739 -7.46107
RightLeg  53.7958 2.37442 3.1062
RightFoot  -3.04317 -0.565372 7.5136
RightToes  -6.40286e-010 0 -3.6325e-017
Spine  6.62425 0.598585 -3.86782
Spine1  5.54567 0.535793 -2.88512
HEad  -17.5639 2.60811 -2.53817
LeftShoulder1  -0.683052 5.27628 -32.3703
LeftArm  8.71866 5.84286 -43.7282
LeftForeArm  18.7597 -24.2656 -4.16584
LeftHand  0.0139956 7.10799 3.23911
RightShoulder  -0.888552 -5.9853 29.2058
RightArm  24.5613 -8.55722 47.0017
RightForeArm  17.9072 13.0313 7.8238
RightHand  0.089718 4.7104 0.688954
LeftUpLeg  -3.58249 4.418 -7.21996
LeftLeg  16.0525 5.4546 0.727174
LeftFoot  -9.56565 -0.0393011 6.27038
LeftToes  1.32783e-010 1.73515e-011 1.59258e-011
415
root  -60.8168 39.8298 -1.99377 22.5312 82.1942 25.5541
RightUpLeg  -19.758 4.38749 -7.05462
RightLeg  46.6237 2.52818 2.55178
RightFoot  -3.80076 -0.554385 8.00213
RightToes  -6.40286e-010 0 -3.6325e-017
Spine  7.24485 0.269522 -3.72183
Spine1  5.14339 0.306972 -2.95591
HEad  -17.7591 2.86514 -1.77859
LeftShoulder1  -0.59269 5.07775 -31.5107
LeftArm  7.36847 4.86291 -44.0154
LeftForeArm  20.4461 -26.0146 -4.49177
LeftHand  0.0118889 7.11323 3.1197
RightShoulder  -0.99804 -6.23197 30.0312
RightArm  23.9528 -9.4822 45.3889
RightForeArm  19.1753 12.4286 7.92915
RightHand  0.0870933 1.56436 1.10777
LeftUpLeg  -1.44749 4.86287 -6.95455
LeftLeg  15.3074 5.21418 0.474852
LeftFoot  -10.678 0.0265853 6.51211
LeftToes  1.32783e-010 1.73515e-011 1.59258e-011
416
root  -59.9347 39.8233 -2.00812 21.3599 82.3291 24.4744
RightUpLeg  -20.4102 4.32119 -6.6147
RightLeg  37.5555 3.20639 2.36772
RightFoot  -3.65354 -0.55671 7.90168
RightToes  -6.40286e-010 0 -3.6325e-017
Spine  7.21697 0.0507279 -3.95525
Spine1  5.44777 0.012347 -2.11132
HEad  -18.7693 3.0903 -1.93754
LeftShoulder1  -0.537367 4.93834 -31.3156
LeftArm  6.12859 3.71428 -44.104
LeftForeArm  21.5996 -27.3955 -4.73555
LeftHand  -0.00987839 6.19438 2.96435
RightShoulder  -1.00521 -6.24751 30.0809
RightArm  20.742 -10.1305 44.6411
RightForeArm  21.0872 11.1776 7.78663
RightHand  0.1403 5.32575 1.24558
LeftUpLeg  0.605295 5.19258 -6.72927
LeftLeg  14.4623 4.85974 0.22778
LeftFoot  -11.7641 0.0949213 6.58285
LeftToes  1.32783e-010 1.73515e-011 1.59258e-011
417
root  -59.0162 39.8057 -2.01777 19.6765 82.1528 22.7883
RightUpLeg  -20.4366 4.19306 -6.11868
RightLeg  27.4408 4.51835 2.36687
RightFoot  -3.37051 -0.570464 7.8427
RightToes  -6.40286e-010 0 -3.6325e-017
Spine  7.10791 -0.113887 -3.82422
Spine1  5.72239 -0.139441 -1.59761
HEad  -19.2959 2.98742 -1.88627
LeftShoulder1  -0.552454 4.97669 -31.3602
LeftArm  5.10011 2.8604 -43.9446
LeftForeArm  22.6741 -28.6274 -4.9552
LeftHand  -0.0101837 6.24177 2.72977
RightShoulder  -0.981708 -6.18463 30.0555
RightArm  16.9596 -10.252 44.36
RightForeArm  20.5242 8.69745 7.78474
RightHand  -0.146251 4.28403 -2.01825
LeftUpLeg  2.76883 5.51414 -6.5423
LeftLeg  13.3198 4.81241 0.000473067
LeftFoot  -12.7523 0.156522 6.45733
LeftToes  1.32783e-010 1.73515e-011 1.59258e-011
